<svg width="40" height="40" viewBox="0 0 40 40" fill="none" xmlns="http://www.w3.org/2000/svg">
<path d="M6.66663 31.6668V16.6668C6.66663 16.1391 6.78496 15.6391 7.02163 15.1668C7.25829 14.6946 7.5844 14.3057 7.99996 14.0002L18 6.50016C18.5833 6.05572 19.25 5.8335 20 5.8335C20.75 5.8335 21.4166 6.05572 22 6.50016L32 14.0002C32.4166 14.3057 32.7433 14.6946 32.98 15.1668C33.2166 15.6391 33.3344 16.1391 33.3333 16.6668V31.6668C33.3333 32.5835 33.0066 33.3685 32.3533 34.0218C31.7 34.6752 30.9155 35.0013 30 35.0002H25C24.5277 35.0002 24.1322 34.8402 23.8133 34.5202C23.4944 34.2002 23.3344 33.8046 23.3333 33.3335V25.0002C23.3333 24.5279 23.1733 24.1324 22.8533 23.8135C22.5333 23.4946 22.1377 23.3346 21.6666 23.3335H18.3333C17.8611 23.3335 17.4655 23.4935 17.1466 23.8135C16.8277 24.1335 16.6677 24.5291 16.6666 25.0002V33.3335C16.6666 33.8057 16.5066 34.2018 16.1866 34.5218C15.8666 34.8418 15.4711 35.0013 15 35.0002H9.99996C9.08329 35.0002 8.29885 34.6741 7.64663 34.0218C6.9944 33.3696 6.66774 32.5846 6.66663 31.6668Z" fill="#A2A2A2"/>
</svg>
