<svg width="36" height="36" viewBox="0 0 36 36" fill="none" xmlns="http://www.w3.org/2000/svg">
<path fill-rule="evenodd" clip-rule="evenodd" d="M17.4419 34.0795L17.4473 34.0813C17.8019 34.2361 17.9999 34.2001 17.9999 34.2001C17.9999 34.2001 18.1979 34.2361 18.5543 34.0813L18.5579 34.0795L18.5687 34.0741L18.6011 34.0597C18.7719 33.9801 18.9405 33.8961 19.1069 33.8077C19.4417 33.6349 19.9097 33.3757 20.4695 33.0283C21.5855 32.3371 23.0705 31.2895 24.5627 29.8513C27.5435 26.9785 30.5999 22.4875 30.5999 16.2001C30.5999 14.5454 30.274 12.907 29.6408 11.3783C29.0076 9.84958 28.0795 8.46057 26.9094 7.29055C25.7394 6.12053 24.3504 5.19242 22.8217 4.55922C21.293 3.92601 19.6546 3.6001 17.9999 3.6001C16.3452 3.6001 14.7068 3.92601 13.1781 4.55922C11.6494 5.19242 10.2604 6.12053 9.09036 7.29055C7.92034 8.46057 6.99223 9.84958 6.35902 11.3783C5.72581 12.907 5.3999 14.5454 5.3999 16.2001C5.3999 22.4857 8.4563 26.9785 11.4389 29.8513C12.6874 31.051 14.0588 32.1159 15.5303 33.0283C16.1004 33.3818 16.6866 33.7086 17.2871 34.0075L17.3987 34.0597L17.4311 34.0741L17.4419 34.0795ZM17.9999 20.2501C19.074 20.2501 20.1042 19.8234 20.8637 19.0639C21.6232 18.3044 22.0499 17.2742 22.0499 16.2001C22.0499 15.126 21.6232 14.0958 20.8637 13.3363C20.1042 12.5768 19.074 12.1501 17.9999 12.1501C16.9258 12.1501 15.8956 12.5768 15.1361 13.3363C14.3766 14.0958 13.9499 15.126 13.9499 16.2001C13.9499 17.2742 14.3766 18.3044 15.1361 19.0639C15.8956 19.8234 16.9258 20.2501 17.9999 20.2501Z" fill="#A2A2A2"/>
</svg>
