<svg xmlns="http://www.w3.org/2000/svg" width="40" height="40" viewBox="0 0 40 40" fill="none">
  <path d="M20 8C15.5 8 12 11.5 12 16C12 20.5 15.5 24 20 24C24.5 24 28 20.5 28 16C28 11.5 24.5 8 20 8ZM12 26C10.5 26 9 27.5 9 29C9 30.5 10.5 32 12 32C13.5 32 15 30.5 15 29C15 27.5 13.5 26 12 26ZM28 26C26.5 26 25 27.5 25 29C25 30.5 26.5 32 28 32C29.5 32 31 30.5 31 29C31 27.5 29.5 26 28 26ZM14 32C12.5 32 11 33.5 11 35C11 36.5 12.5 38 14 38C15.5 38 17 36.5 17 35C17 33.5 15.5 32 14 32ZM26 32C24.5 32 23 33.5 23 35C23 36.5 24.5 38 26 38C27.5 38 29 36.5 29 35C29 33.5 27.5 32 26 32ZM20 24C15 24 11 26 11 30C11 34 15 36 20 36C25 36 29 34 29 30C29 26 25 24 20 24Z" fill="white"/>
</svg>
