<svg xmlns="http://www.w3.org/2000/svg" width="42" height="42" viewBox="0 0 42 42" fill="none">
  <path d="M6.5 35C5.5375 35 4.71383 34.6576 4.029 33.9727C3.34417 33.2879 3.00117 32.4637 3 31.5V10.5C3 9.5375 3.343 8.71383 4.029 8.029C4.715 7.34417 5.53867 7.00117 6.5 7H34.5C35.4625 7 36.2868 7.343 36.9728 8.029C37.6587 8.715 38.0012 9.53867 38 10.5V31.5C38 32.4625 37.6576 33.2868 36.9728 33.9727C36.2879 34.6588 35.4637 35.0012 34.5 35H6.5ZM20.5 22.4437C20.6458 22.4437 20.7992 22.4216 20.9602 22.3772C21.1212 22.3329 21.2741 22.2676 21.4187 22.1813L33.8 14.4375C34.0333 14.2917 34.2083 14.1097 34.325 13.8915C34.4417 13.6733 34.5 13.4324 34.5 13.1688C34.5 12.5854 34.2521 12.1479 33.7563 11.8563C33.2604 11.5646 32.75 11.5792 32.225 11.9L20.5 19.25L8.775 11.9C8.25 11.5792 7.73958 11.5722 7.24375 11.879C6.74792 12.1858 6.5 12.6158 6.5 13.1688C6.5 13.4604 6.55833 13.7159 6.675 13.9352C6.79167 14.1546 6.96667 14.322 7.2 14.4375L19.5813 22.1813C19.7271 22.2688 19.8805 22.3347 20.0415 22.379C20.2025 22.4233 20.3553 22.4449 20.5 22.4437Z" fill="white"/>
</svg>






