<svg xmlns="http://www.w3.org/2000/svg" width="86" height="86" viewBox="0 0 86 86" fill="none">
  <circle cx="42.5383" cy="42.5383" r="32.2995" transform="rotate(-23.6318 42.5383 42.5383)" fill="#68D0C6"/>
  <path d="M61.4442 49.9355C59.918 46.4475 57.0688 43.7087 53.5232 42.3214C49.9777 40.9342 46.0263 41.0123 42.5383 42.5385C39.0503 44.0646 36.3114 46.9139 34.9242 50.4594C33.537 54.005 33.615 57.9564 35.1412 61.4444C40.2074 66.0854 48.6689 62.5107 49.5515 58.5668C52.9857 60.5247 60.9312 56.0737 61.4442 49.9355Z" fill="white"/>
  <circle cx="24.6861" cy="49.86" r="5.83185" transform="rotate(-23.6318 24.6861 49.86)" fill="white"/>
  <circle cx="60.0308" cy="34.3951" r="5.83185" transform="rotate(-23.6318 60.0308 34.3951)" fill="white"/>
  <circle cx="29.977" cy="32.8551" r="5.83185" transform="rotate(-23.6318 29.977 32.8551)" fill="white"/>
  <circle cx="43.9504" cy="26.7408" r="5.83185" transform="rotate(-23.6318 43.9504 26.7408)" fill="white"/>
</svg>



